<svg width="40.000000" height="56.000000" viewBox="0 0 40 56" fill="none" xmlns="http://www.w3.org/2000/svg" xmlns:xlink="http://www.w3.org/1999/xlink">
	<desc>
			Created with Pixso.
	</desc>
	<defs/>
	<path id="Vector" d="M3.27 55.5L25.61 55.5C26.06 55.5 26.42 55.14 26.42 54.69C26.42 54.24 26.06 53.88 25.61 53.88L8.99 53.88L8.99 46.43C8.99 45.98 8.62 45.61 8.17 45.61C7.72 45.61 7.36 45.98 7.36 46.43L7.36 53.88L3.27 53.88C1.99 53.88 1.4 53.33 1.58 51.96C3.8 41.09 3.81 40.21 4.17 39.32C4.24 39.23 4.59 37.97 6.31 37.24C6.48 37.17 6.37 37.22 6.98 37.03C7.02 37.02 6.84 37.09 9.76 36.07L11.7 39.67C11.92 40.06 12.41 40.21 12.81 40C13.2 39.78 13.35 39.29 13.13 38.89L11.31 35.53L12.56 35.1C13.16 36.21 18.47 46.02 19.05 47.08C19.41 47.74 20.32 47.78 20.73 47.2C20.81 47.1 20.38 47.87 27.29 35.09L28.53 35.53L21.95 47.7C21.08 49.31 18.78 49.31 17.91 47.71L14.94 42.23C14.73 41.83 14.23 41.69 13.84 41.9C13.44 42.12 13.3 42.61 13.51 43L16.48 48.48C17.96 51.22 21.9 51.22 23.38 48.48L30.09 36.07C33 37.08 32.83 37.02 32.87 37.03C33.44 37.21 33.38 37.17 33.55 37.24C34.17 37.51 34.54 37.81 34.53 37.81C35.17 38.32 35.61 38.91 35.84 39.79C35.88 39.93 38.3 51.9 38.31 52.3C38.33 53.32 37.89 53.88 36.59 53.88L32.5 53.88L32.5 46.43C32.5 45.98 32.13 45.61 31.68 45.61C31.23 45.61 30.87 45.98 30.87 46.43L30.87 53.88L29.41 53.88C28.96 53.88 28.59 54.24 28.59 54.69C28.59 55.14 28.96 55.5 29.41 55.5L36.59 55.5C38.51 55.5 39.73 54.52 39.91 52.82C39.95 52.41 39.93 51.91 39.88 51.66C37.4 39.25 37.51 39.77 37.5 39.72C37.17 38.15 36.26 36.85 34.78 36.03C34.09 35.65 33.69 35.59 33.35 35.48L27.27 33.37L25.25 31.98L25.25 30.4C28.21 28.64 30.09 25.61 30.44 22.34C32.91 22.45 34.64 20.09 33.6 18.02L33.6 11.39C33.6 6.59 30.99 4.93 30.19 4.53C26.3 -0.12 19.02 -1.32 13.5 1.51L13.49 1.52C13.4 1.58 12.26 2.1 10.86 3.27C10.52 3.57 10.48 4.08 10.78 4.42C11.07 4.76 11.59 4.8 11.92 4.5C17.33 -0.04 25.35 1.13 29.05 5.7C29.15 5.81 29.26 5.9 29.39 5.95C29.5 5.99 31.97 7.03 31.97 11.39L31.97 16.52C31.52 16.33 31.03 16.23 30.5 16.25L30.5 13.59C30.5 12.91 29.99 12.35 29.32 12.29C27.95 12.16 27.18 11.27 26.78 10.54C26.28 9.64 25.08 9.42 24.29 10.09C20.67 13.19 16.49 13.35 13.63 12.94C11.47 12.62 9.45 14.1 9.1 16.25C8.58 16.22 8.06 16.32 7.58 16.52C7.58 13.72 7.26 10.67 9.55 7.18C9.8 6.81 9.69 6.3 9.31 6.06C8.94 5.81 8.43 5.92 8.19 6.29C5.07 11.07 6.19 15.35 5.95 18.02C4.92 20.09 6.64 22.45 9.11 22.34C9.52 26.2 11.9 28.42 11.95 28.52L11.95 28.52C12.38 28.92 13.13 29.77 14.61 30.58L14.61 31.98L12.59 33.37C4.66 36.12 5.47 35.79 4.82 36.18C3.61 36.93 2.76 38.07 2.41 39.49C2.34 39.76 2.46 39.24 -0.02 51.66C-0.07 51.91 -0.1 52.4 -0.05 52.82C0.13 54.52 1.34 55.5 3.27 55.5ZM21.33 31.79C21.79 31.72 22.28 31.62 22.57 31.53C22.64 31.51 23.03 31.42 23.62 31.19L23.62 32.09L19.93 36.2L16.24 32.09L16.24 31.3C17.94 31.89 19.7 32.03 21.33 31.79ZM23.37 38.93C23.15 38.78 21.39 37.48 21.13 37.29L24.56 33.48L25.84 34.36C25.02 35.88 23.9 37.95 23.37 38.93ZM22.07 41.33L21.87 40.71L22.18 40.08L22.58 40.38L22.07 41.33ZM17.27 40.38L17.68 40.08L17.99 40.71L17.79 41.34L17.27 40.38ZM18.72 37.29C18.53 37.44 16.69 38.79 16.49 38.93L14.02 34.36L15.3 33.48L18.72 37.29ZM19.01 39.1L19.93 38.43L20.84 39.1L20.49 39.84L19.37 39.84L19.01 39.1ZM19.93 45.29L18.85 43.31L19.45 41.46L20.4 41.46L21 43.3C20.66 43.93 20.35 44.52 19.93 45.29ZM32.28 19.29C32.28 20.14 31.43 20.76 30.5 20.71L30.5 17.87C31.44 17.82 32.28 18.45 32.28 19.29ZM29.16 13.91C29.16 13.91 29.16 13.91 29.16 13.91C29.16 13.91 29.16 13.91 29.16 13.91ZM13.4 14.55C16.59 15.01 21.26 14.82 25.35 11.33L25.36 11.33C26.15 12.75 27.39 13.64 28.87 13.87L28.87 16.75L27.94 17.3C27.56 16.75 26.93 16.38 26.21 16.38L22.49 16.38C21.61 16.38 20.86 16.92 20.54 17.69L19.02 17.69C18.7 16.92 17.94 16.38 17.06 16.38L13.34 16.38C12.62 16.38 11.99 16.75 11.61 17.3L10.68 16.75C10.76 15.36 12.02 14.35 13.4 14.55ZM22 18.5C22 18.23 22.22 18.01 22.49 18.01L26.21 18.01C26.47 18.01 26.7 18.23 26.7 18.5L26.7 20.12C26.7 20.82 26.12 21.4 25.42 21.4L23.28 21.4C22.57 21.4 22 20.82 22 20.12L22 18.5L22 18.5ZM17.55 18.5L17.55 20.12C17.55 20.82 16.98 21.4 16.27 21.4L14.13 21.4C13.43 21.4 12.86 20.82 12.86 20.12L12.86 18.5C12.86 18.23 13.08 18.01 13.34 18.01L17.06 18.01C17.33 18.01 17.55 18.23 17.55 18.5ZM7.28 19.29C7.28 18.45 8.12 17.82 9.05 17.87L9.05 20.71C8.11 20.76 7.28 20.13 7.28 19.29ZM12.87 27.1C10.24 24.04 10.75 21.06 10.68 18.64L11.23 18.96L11.23 20.12C11.23 21.72 12.53 23.02 14.13 23.02L16.27 23.02C17.87 23.02 19.18 21.72 19.18 20.12L19.18 19.31L20.37 19.31L20.37 20.12C20.37 21.72 21.68 23.02 23.28 23.02L25.42 23.02C27.02 23.02 28.32 21.72 28.32 20.12L28.32 18.96L28.87 18.64L28.87 21.18C28.87 26.02 25.05 30.22 19.78 30.28C19.76 30.28 19.66 30.28 19.67 30.28C18.26 30.26 17.18 29.9 17.29 29.93C15.69 29.49 14.17 28.58 12.87 27.1Z" fill="#00093C" fill-opacity="1.000000" fill-rule="nonzero"/>
</svg>
