<svg width="17.000000" height="20.000000" viewBox="0 0 17 20" fill="none" xmlns="http://www.w3.org/2000/svg" xmlns:xlink="http://www.w3.org/1999/xlink">
	<desc>
			Created with Pixso.
	</desc>
	<defs/>
	<path id="Ellipse 189" d="M8.5 20C8.5 20 17 15 17 8.5C17 3.80566 13.1944 0 8.5 0C3.8056 0 0 3.80566 0 8.5C0 15 8.5 20 8.5 20ZM8.5 17.6072Q8.41858 17.55 8.33588 17.4907Q6.86377 16.4373 5.64294 15.2524Q3.98401 13.6421 3.06097 12.0405Q2 10.1995 2 8.5Q2 7.74536 2.16577 7.02881Q2.29077 6.48877 2.51001 5.97046Q2.73669 5.43457 3.0495 4.95459Q3.41718 4.39038 3.90381 3.90381Q4.39044 3.41724 4.95459 3.04956Q5.43451 2.73682 5.97052 2.51001Q6.48883 2.29077 7.02887 2.16577Q7.74524 2 8.5 2Q9.25476 2 9.97113 2.16577Q10.5112 2.29077 11.0295 2.51001Q11.5656 2.73682 12.0455 3.04956Q12.6096 3.41724 13.0962 3.90381Q13.5828 4.39038 13.9505 4.95459Q14.2633 5.43457 14.49 5.97046Q14.7092 6.48877 14.8342 7.02881Q15 7.74536 15 8.5Q15 10.1995 13.939 12.0405Q13.016 13.6421 11.3571 15.2524Q10.1362 16.4373 8.66412 17.4907Q8.58142 17.55 8.5 17.6072Z" fill="#00093C" fill-opacity="1.000000" fill-rule="evenodd"/>
	<circle id="Ellipse 190" cx="8.500000" cy="7.500000" r="2.500000" fill="#00093C" fill-opacity="1.000000"/>
</svg>
