<svg width="100.000000" height="70.646484" viewBox="0 0 100 70.6465" fill="none" xmlns="http://www.w3.org/2000/svg" xmlns:xlink="http://www.w3.org/1999/xlink">
	<desc>
			Created with Pixso.
	</desc>
	<defs/>
	<path id="Vector" d="M16.467 70.6462C7.38525 70.6462 0 63.2612 0 54.1792C0 45.0974 7.38525 37.7122 16.467 37.7122C25.549 37.7122 32.9342 45.0974 32.9342 54.1792C32.9342 63.311 25.549 70.6462 16.467 70.6462Z" fill="#00093C" fill-opacity="1.000000" fill-rule="nonzero"/>
	<path id="Vector" d="M55.3894 1.8335L37.5251 31.0254C37.0261 31.8735 37.5751 32.9214 38.5232 32.9214L56.3875 32.9214L74.2517 32.9214C75.1998 32.9214 75.7488 31.8237 75.2498 31.0254L57.3855 1.8335C56.8865 1.08521 55.8386 1.08521 55.3894 1.8335Z" fill="#00093C" fill-opacity="1.000000" fill-rule="nonzero"/>
	<path id="Vector" d="M32.5847 6.77393L26.1476 0.336914C25.6985 -0.112305 24.9 -0.112305 24.4509 0.336914L17.3651 7.42261C16.916 7.87183 16.1176 7.87183 15.6685 7.42261L8.58264 0.336914C8.13354 -0.112305 7.33508 -0.112305 6.88599 0.336914L0.448853 6.77393C-0.000244141 7.22314 -0.000244141 8.02148 0.448853 8.47046L7.53467 15.5564C7.98376 16.0056 7.98376 16.804 7.53467 17.2529L0.448853 24.3389C-0.000244141 24.7881 -0.000244141 25.5864 0.448853 26.0354L6.88599 32.4727C7.33508 32.9216 8.13354 32.9216 8.58264 32.4727L15.6685 25.3867C16.1176 24.9377 16.916 24.9377 17.3651 25.3867L24.4509 32.4727C24.9 32.9216 25.6985 32.9216 26.1476 32.4727L32.5847 26.0354C33.0338 25.5864 33.0338 24.7881 32.5847 24.3389L25.4988 17.2529C25.0497 16.804 25.0497 16.0056 25.4988 15.5564L32.5847 8.47046C33.0837 8.02148 33.0837 7.27295 32.5847 6.77393Z" fill="#00093C" fill-opacity="1.000000" fill-rule="nonzero"/>
	<path id="Vector" d="M40.6685 49.0891L40.6685 51.1851L44.3112 51.1851L44.3112 52.6321L40.6685 52.6321L40.6685 55.4766L38.8721 55.4766L38.8721 47.6421L44.7603 47.6421L44.7603 49.0891L40.6685 49.0891Z" fill="#000000" fill-opacity="1.000000" fill-rule="nonzero"/>
	<path id="Vector" d="M47.2058 54.678C46.6069 54.0793 46.2577 53.1812 46.2577 52.0334L46.2577 47.6421L48.0541 47.6421L48.0541 51.9336C48.0541 53.3308 48.653 54.0293 49.8007 54.0293C50.3495 54.0293 50.7986 53.8796 51.098 53.5303C51.3975 53.1812 51.5471 52.6821 51.5471 51.9336L51.5471 47.6421L53.3435 47.6421L53.3435 52.0334C53.3435 53.1812 53.0442 54.0793 52.3954 54.678C51.7966 55.2769 50.8984 55.6262 49.8007 55.6262C48.7028 55.6262 47.8046 55.2769 47.2058 54.678Z" fill="#000000" fill-opacity="1.000000" fill-rule="nonzero"/>
	<path id="Vector" d="M56.936 49.1392L54.441 49.1392L54.441 47.6421L61.2275 47.6421L61.2275 49.1392L58.7324 49.1392L58.7324 55.4766L56.936 55.4766L56.936 49.1392Z" fill="#000000" fill-opacity="1.000000" fill-rule="nonzero"/>
	<path id="Vector" d="M63.2733 54.678C62.6744 54.0793 62.3252 53.1812 62.3252 52.0334L62.3252 47.6421L64.1216 47.6421L64.1216 51.9336C64.1216 53.3308 64.7205 54.0293 65.8682 54.0293C66.417 54.0293 66.8661 53.8796 67.1655 53.5303C67.465 53.1812 67.6146 52.6821 67.6146 51.9336L67.6146 47.6421L69.411 47.6421L69.411 52.0334C69.411 53.1812 69.1116 54.0793 68.4629 54.678C67.8641 55.2769 66.9659 55.6262 65.8682 55.6262C64.7703 55.6262 63.922 55.2769 63.2733 54.678Z" fill="#000000" fill-opacity="1.000000" fill-rule="nonzero"/>
	<path id="Vector" d="M76.4971 55.4768L75.0001 53.2812L74.9003 53.2812L73.3035 53.2812L73.3035 55.4768L71.5071 55.4768L71.5071 47.6924L74.9003 47.6924C75.5989 47.6924 76.1978 47.7922 76.6967 48.0417C77.1957 48.2913 77.595 48.5906 77.8943 49.0398C78.1438 49.439 78.2936 49.9878 78.2936 50.5366C78.2936 51.1355 78.1438 51.6345 77.8943 52.0337C77.595 52.4329 77.1957 52.7822 76.6967 52.9819L78.4432 55.4768L76.4971 55.4768ZM76.048 49.4888C75.7487 49.2393 75.3494 49.1394 74.8005 49.1394L73.3035 49.1394L73.3035 51.884L74.8005 51.884C75.3494 51.884 75.7487 51.7842 76.048 51.5347C76.3474 51.2852 76.4473 50.9858 76.4473 50.5366C76.4971 50.0376 76.3474 49.7383 76.048 49.4888Z" fill="#000000" fill-opacity="1.000000" fill-rule="nonzero"/>
	<path id="Vector" d="M86.1279 54.0293L86.1279 55.4766L80.09 55.4766L80.09 47.6421L85.9781 47.6421L85.9781 49.0891L81.8864 49.0891L81.8864 50.7859L85.4792 50.7859L85.4792 52.2329L81.8864 52.2329L81.8864 54.0293L86.1279 54.0293Z" fill="#000000" fill-opacity="1.000000" fill-rule="nonzero"/>
	<path id="Vector" d="M44.012 68.2512L40.3693 68.2512L39.6707 69.9478L37.8243 69.9478L41.3174 62.1633L43.1138 62.1633L46.6068 69.9478L44.7106 69.9478L44.012 68.2512ZM43.463 66.9038L42.2156 63.9099L40.968 66.9038L43.463 66.9038Z" fill="#000000" fill-opacity="1.000000" fill-rule="nonzero"/>
	<path id="Vector" d="M49.2017 69.5486C48.553 69.1992 48.054 68.7002 47.7047 68.1013C47.3553 67.5024 47.1558 66.804 47.1558 66.0056C47.1558 65.2571 47.3553 64.5583 47.7047 63.9097C48.054 63.311 48.6029 62.812 49.2017 62.4626C49.8503 62.1133 50.549 61.9636 51.3474 61.9636C52.046 61.9636 52.6448 62.0635 53.1937 62.313C53.7426 62.5625 54.1917 62.9116 54.5909 63.3608L53.4432 64.4087C52.8943 63.8098 52.2456 63.5105 51.4971 63.5105C50.998 63.5105 50.5989 63.6104 50.1997 63.8101C49.8004 64.0095 49.5011 64.3088 49.3015 64.7083C49.1018 65.1074 49.0021 65.5066 49.0021 66.0056C49.0021 66.5046 49.1018 66.9038 49.3015 67.303C49.5011 67.7021 49.8004 68.0015 50.1997 68.2012C50.5989 68.4009 50.998 68.5005 51.4971 68.5005C52.2955 68.5005 52.9442 68.2012 53.4432 67.5525L54.5909 68.6003C54.2416 69.0496 53.7426 69.3987 53.1937 69.6482C52.6448 69.8977 52.046 69.9976 51.3474 69.9976C50.5989 70.0474 49.8503 69.8977 49.2017 69.5486Z" fill="#000000" fill-opacity="1.000000" fill-rule="nonzero"/>
	<path id="Vector" d="M61.1277 68.2512L57.485 68.2512L56.7864 69.9478L54.9401 69.9478L58.4331 62.1633L60.2295 62.1633L63.7225 69.9478L61.8263 69.9478L61.1277 68.2512ZM60.5789 66.9038L59.3313 63.9099L58.0837 66.9038L60.5789 66.9038Z" fill="#000000" fill-opacity="1.000000" fill-rule="nonzero"/>
	<path id="Vector" d="M64.8704 62.1133L68.4133 62.1133C69.2616 62.1133 70.0101 62.2629 70.6588 62.6123C71.3075 62.9116 71.8065 63.4106 72.1558 63.9597C72.5051 64.5583 72.7047 65.207 72.7047 66.0056C72.7047 66.804 72.5051 67.4526 72.1558 68.0515C71.8065 68.6501 71.3075 69.0994 70.6588 69.3987C70.0101 69.6982 69.2616 69.8977 68.4133 69.8977L64.8704 69.8977L64.8704 62.1133ZM68.3135 68.4507C69.1119 68.4507 69.7107 68.251 70.1598 67.802C70.6089 67.3528 70.8584 66.7539 70.8584 66.0554C70.8584 65.3069 70.6089 64.708 70.1598 64.3088C69.7107 63.8599 69.062 63.6602 68.3135 63.6602L66.6667 63.6602L66.6667 68.5005L68.3135 68.5005L68.3135 68.4507Z" fill="#000000" fill-opacity="1.000000" fill-rule="nonzero"/>
	<path id="Vector" d="M80.4391 68.5005L80.4391 69.9478L74.4011 69.9478L74.4011 62.1133L80.2894 62.1133L80.2894 63.5603L76.1975 63.5603L76.1975 65.2571L79.8402 65.2571L79.8402 66.6543L76.1975 66.6543L76.1975 68.5005L80.4391 68.5005Z" fill="#000000" fill-opacity="1.000000" fill-rule="nonzero"/>
	<path id="Vector" d="M89.3214 69.9478L89.3214 65.2571L87.026 69.0994L86.2277 69.0994L83.9323 65.3567L83.9323 69.9478L82.2356 69.9478L82.2356 62.1133L83.7325 62.1133L86.6268 66.9536L89.521 62.1133L91.0181 62.1133L91.0181 69.9478L89.3214 69.9478Z" fill="#000000" fill-opacity="1.000000" fill-rule="nonzero"/>
	<path id="Vector" d="M96.9561 67.1533L96.9561 69.9478L95.1597 69.9478L95.1597 67.1533L92.1157 62.1133L94.0619 62.1133L96.1577 65.6062L98.2036 62.1133L100 62.1133L96.9561 67.1533Z" fill="#000000" fill-opacity="1.000000" fill-rule="nonzero"/>
</svg>
