<svg xmlns="http://www.w3.org/2000/svg" width="57" height="40.269" fill="none" viewBox="0 0 57 40.269"><path fill="#00093C" d="M9.387 40.268C4.21 40.268 0 36.058 0 30.882c0-5.177 4.21-9.386 9.387-9.386 5.175 0 9.386 4.21 9.386 9.386a9.378 9.378 0 0 1-9.386 9.386Z"/><path fill="#00093C" d="M9.387 40.268C4.21 40.268 0 36.058 0 30.882c0-5.177 4.21-9.386 9.387-9.386 5.175 0 9.386 4.21 9.386 9.386a9.378 9.378 0 0 1-9.386 9.386ZM31.57 1.045l-10.183 16.64c-.282.483.031 1.08.57 1.08H42.324c.54 0 .852-.626.567-1.08L32.707 1.044c-.281-.427-.879-.427-1.137 0ZM18.57 3.861 14.902.191a.702.702 0 0 0-.964 0l-4.04 4.04a.707.707 0 0 1-.968 0L4.89.191a.707.707 0 0 0-.968 0L.254 3.862a.71.71 0 0 0 0 .967l4.039 4.04a.701.701 0 0 1 0 .966l-4.04 4.039a.71.71 0 0 0 0 .967l3.669 3.67c.258.255.71.255.969 0l4.039-4.04a.707.707 0 0 1 .968 0l4.04 4.04c.253.255.71.255.964 0l3.668-3.67a.702.702 0 0 0 0-.967l-4.039-4.039a.71.71 0 0 1 0-.967l4.04-4.039c.284-.256.284-.682 0-.967Z"/><path fill="#000" d="M23.18 27.981v1.194h2.078V30H23.18v1.622h-1.024v-4.466h3.356v.825H23.18ZM26.906 31.166c-.34-.34-.539-.853-.539-1.507v-2.503h1.024v2.446c0 .796.343 1.195.996 1.195.312 0 .57-.086.738-.285.172-.199.258-.483.258-.91v-2.446h1.023v2.503c0 .654-.172 1.166-.539 1.508-.344.34-.855.54-1.48.54s-1.137-.2-1.48-.54ZM32.453 28.01h-1.422v-.854h3.867v.853h-1.421v3.613h-1.024v-3.613ZM36.063 31.166c-.34-.34-.54-.853-.54-1.507v-2.503h1.024v2.446c0 .796.344 1.195.996 1.195.313 0 .57-.086.738-.285.172-.199.258-.483.258-.91v-2.446h1.023v2.503c0 .654-.171 1.166-.539 1.508-.343.34-.855.54-1.48.54s-1.11-.2-1.48-.54ZM43.602 31.622l-.852-1.252H41.781v1.252h-1.023v-4.437h1.933c.399 0 .739.056 1.024.199.285.142.512.313.683.569.141.227.227.54.227.853 0 .341-.086.626-.227.853a1.616 1.616 0 0 1-.683.54l.996 1.423H43.6Zm-.254-3.413c-.172-.143-.399-.2-.711-.2h-.856v1.565h.856c.312 0 .539-.057.71-.2.169-.142.227-.312.227-.568.028-.285-.058-.455-.226-.598ZM49.094 30.797v.825h-3.442v-4.466h3.356v.825h-2.332v.967h2.047v.825h-2.047v1.024h2.418ZM25.086 38.903h-2.078l-.399.967h-1.05l1.992-4.437h1.023l1.992 4.437h-1.082l-.398-.967Zm-.313-.768-.71-1.706-.711 1.706h1.421ZM28.047 39.643a2.166 2.166 0 0 1-.856-.825c-.199-.342-.312-.74-.312-1.195 0-.427.113-.825.312-1.194.2-.342.512-.626.856-.826.367-.199.765-.284 1.223-.284.398 0 .738.057 1.05.2.313.141.57.34.797.596l-.656.598c-.313-.341-.68-.512-1.11-.512-.28 0-.511.057-.738.17a1.118 1.118 0 0 0-.511.512 1.581 1.581 0 0 0-.172.74c0 .285.058.512.172.74.113.227.285.398.511.511.227.114.457.171.739.171.457 0 .828-.17 1.109-.54l.656.597c-.199.256-.484.455-.797.597-.312.143-.652.2-1.05.2a2.252 2.252 0 0 1-1.223-.256ZM34.844 38.903h-2.078l-.399.967h-1.05l1.992-4.437h1.023l1.992 4.437h-1.082l-.398-.967Zm-.313-.768-.71-1.706-.712 1.706h1.422ZM36.977 35.404h2.02c.483 0 .91.086 1.28.285.367.17.653.455.852.768.2.341.312.711.312 1.166 0 .455-.113.825-.312 1.166-.2.342-.484.597-.852.768-.37.17-.797.285-1.28.285h-2.02v-4.438Zm1.96 3.613c.458 0 .797-.114 1.055-.37.254-.256.399-.597.399-.995 0-.427-.145-.769-.399-.996-.258-.256-.625-.37-1.054-.37H38v2.76h.938v-.03ZM45.852 39.045v.825H42.41v-4.465h3.356v.825h-2.332v.967h2.078v.796h-2.078v1.052h2.418ZM50.914 39.87v-2.673l-1.309 2.19h-.453l-1.308-2.134v2.617h-.969v-4.465h.852l1.652 2.759 1.648-2.76h.856v4.466h-.969ZM55.266 38.277v1.593h-1.024v-1.593l-1.734-2.873h1.11l1.194 1.991 1.165-1.99H57l-1.734 2.872Z"/></svg>