<svg xmlns="http://www.w3.org/2000/svg" width="110" height="69.758" fill="none" viewBox="0 0 110 69.758"><path fill="#00093C" d="M16.308 69.758A16.222 16.222 0 0 1 .062 53.512a16.222 16.222 0 0 1 16.246-16.246c8.99 0 16.246 7.255 16.246 16.246 0 8.99-7.255 16.246-16.246 16.246ZM54.69 1.86 37.08 30.631c-.496.807.062 1.86.992 1.86h35.22c.93 0 1.488-1.053.992-1.86l-17.61-28.77c-.496-.745-1.55-.745-1.984 0ZM32.182 6.759 25.795.372c-.496-.496-1.24-.496-1.674 0L17.114 7.38c-.496.496-1.24.496-1.674 0L8.433.372c-.496-.496-1.24-.496-1.674 0L.372 6.76c-.496.496-.496 1.24 0 1.674L7.38 15.44c.496.496.496 1.24 0 1.674L.372 24.12c-.496.496-.496 1.24 0 1.674L6.76 32.18c.496.497 1.24.497 1.674 0l7.007-7.006c.496-.496 1.24-.496 1.674 0l7.007 7.006c.496.497 1.24.497 1.674 0l6.387-6.386c.496-.496.496-1.24 0-1.674l-7.007-7.007c-.496-.496-.496-1.24 0-1.674l7.007-7.007c.496-.496.496-1.24 0-1.674Z"/><path fill="#000" d="M43.405 52.892H39.87l-.682 1.612H37.39l3.41-7.627h1.737l3.41 7.627h-1.86l-.682-1.612Zm-.558-1.302-1.24-2.915-1.24 2.915h2.48ZM48.613 54.194c-.62-.31-1.116-.806-1.488-1.426a3.902 3.902 0 0 1-.558-2.046c0-.745.186-1.427.558-2.047.372-.62.868-1.054 1.488-1.426a4.796 4.796 0 0 1 2.108-.496c.682 0 1.24.124 1.799.372.558.248.992.558 1.364.992l-1.116 1.054c-.496-.62-1.179-.868-1.922-.868-.497 0-.869.124-1.24.31a1.959 1.959 0 0 0-.869.868c-.186.372-.31.807-.31 1.24 0 .497.124.869.31 1.24.186.373.496.683.868.869.372.186.806.31 1.24.31.744 0 1.427-.31 1.923-.93l1.116 1.054c-.372.434-.806.806-1.364.992a4.241 4.241 0 0 1-1.799.372c-.744.062-1.488-.124-2.108-.434ZM60.395 52.892H56.86l-.682 1.612H54.38l3.41-7.627h1.736l3.41 7.627h-1.86l-.681-1.612Zm-.559-1.302-1.24-2.915-1.24 2.915h2.48ZM64.053 46.94h3.472c.806 0 1.55.185 2.17.495.62.31 1.117.744 1.489 1.364.372.558.558 1.24.558 1.985 0 .744-.186 1.426-.558 1.984-.372.558-.868.992-1.488 1.364-.62.31-1.364.496-2.17.496h-3.473V46.94Zm3.41 6.138c.745 0 1.364-.186 1.799-.62.434-.434.682-.992.682-1.736 0-.745-.248-1.303-.683-1.736-.434-.435-1.053-.62-1.798-.62h-1.612v4.712h1.612ZM79.307 53.14v1.426h-5.891v-7.627h5.767v1.426h-4.03v1.675h3.533v1.364h-3.534v1.736h4.155ZM87.988 54.566v-4.589l-2.232 3.783h-.806l-2.233-3.658v4.464h-1.674v-7.627h1.488l2.852 4.713 2.79-4.713H89.6v7.627h-1.612ZM95.428 51.838v2.728h-1.736v-2.728l-2.976-4.899h1.86l2.046 3.41 2.046-3.41h1.737l-2.977 4.899ZM38.94 68.58c-.372-.187-.62-.435-.868-.807a2.374 2.374 0 0 1-.31-1.178c0-.434.124-.806.31-1.178.186-.31.496-.62.868-.806a2.62 2.62 0 0 1 1.24-.31c.434 0 .869.124 1.24.31.373.186.62.434.869.806.186.31.31.744.31 1.178 0 .434-.124.806-.31 1.178a2.19 2.19 0 0 1-.868.806c-.372.187-.745.31-1.24.31-.497 0-.93-.123-1.24-.31Zm1.985-1.055c.186-.248.31-.496.31-.868s-.124-.682-.31-.868c-.186-.248-.496-.31-.807-.31-.31 0-.558.124-.806.31-.185.248-.31.496-.31.868s.124.682.31.868c.186.248.496.31.806.31.31 0 .62-.124.807-.31ZM44.955 64.55h1.116v.991h-1.054v3.287h-1.24V65.54h-.682v-.992h.682v-.186c0-.496.124-.868.434-1.178.31-.31.682-.434 1.24-.434.186 0 .372 0 .558.062.186.062.31.124.434.186l-.31.93c-.124-.124-.31-.124-.496-.124-.372 0-.558.186-.558.62v.124h-.124ZM52.272 68.58c-.124.062-.248.186-.434.186-.186.062-.372.062-.559.062-.496 0-.93-.124-1.177-.372-.31-.248-.434-.62-.434-1.178v-1.799h-.683v-.992h.682v-1.054h1.24v1.054h1.055v.992h-1.055v1.737c0 .186.063.31.125.434.124.124.248.124.372.124a.705.705 0 0 0 .496-.186l.372.992ZM57.17 64.921c.31.31.496.806.496 1.426v2.48h-1.24v-2.294c0-.372-.062-.62-.248-.744-.124-.186-.372-.248-.682-.248-.31 0-.558.124-.744.31-.186.186-.31.496-.31.868v2.17h-1.24v-5.952h1.24v2.108c.186-.186.372-.31.62-.372s.496-.124.744-.124c.62-.124 1.054 0 1.364.372ZM63.247 67.03H59.96c.063.247.187.495.434.62.248.185.496.247.806.247.248 0 .434-.062.62-.124.187-.062.31-.186.497-.31l.682.744c-.434.497-.992.683-1.799.683-.496 0-.93-.124-1.302-.31-.372-.187-.682-.435-.868-.807a2.374 2.374 0 0 1-.31-1.178c0-.434.124-.806.31-1.178.186-.31.496-.62.806-.806.31-.186.744-.31 1.178-.31.434 0 .807.062 1.179.248s.62.434.806.806c.186.372.31.744.31 1.178 0 .124 0 .248-.062.496Zm-2.914-1.427c-.186.186-.31.372-.373.682h2.109a1.478 1.478 0 0 0-.373-.682c-.185-.186-.433-.248-.682-.248-.248 0-.496.062-.681.248ZM69.324 63.185v1.86h3.224v1.302h-3.224v2.543H67.71v-6.945h5.27v1.302h-3.657v-.062ZM75.152 68.084c-.558-.559-.806-1.303-.806-2.357v-3.906h1.612v3.844c0 1.24.496 1.86 1.55 1.86.497 0 .869-.124 1.179-.434.31-.31.372-.744.372-1.426v-3.844h1.612v3.906c0 .992-.248 1.798-.806 2.356-.558.559-1.302.806-2.294.806-.993 0-1.923-.247-2.419-.805ZM83.895 63.185h-2.232v-1.302h6.077v1.302h-2.233v5.643h-1.612v-5.643ZM89.662 68.084c-.558-.559-.806-1.303-.806-2.357v-3.906h1.612v3.844c0 1.24.496 1.86 1.55 1.86.496 0 .868-.124 1.178-.434.31-.31.372-.744.372-1.426v-3.844h1.612v3.906c0 .992-.248 1.798-.806 2.356-.558.559-1.302.806-2.294.806s-1.86-.247-2.418-.805ZM101.443 68.828l-1.364-1.923h-1.488v1.923H96.98v-6.945h2.976c.62 0 1.178.124 1.612.31.434.186.806.496 1.054.868s.372.806.372 1.364-.124.93-.372 1.364c-.248.372-.62.682-1.054.868l1.55 2.233h-1.674v-.062Zm-.434-5.333c-.248-.186-.62-.31-1.116-.31h-1.302v2.418h1.302c.496 0 .868-.124 1.116-.31.248-.186.372-.496.372-.868a.946.946 0 0 0-.372-.93ZM110 67.525v1.303h-5.395v-6.945h5.271v1.302h-3.658v1.488h3.224v1.24h-3.224v1.612H110Z"/></svg>